<svg xmlns="http://www.w3.org/2000/svg" viewBox="0 0 212.794 196.805"><g data-name="Layer 2"><g data-name="ART"><path d="M114.969 80.867c7.371 32.23-9.47 68.045-34.133 74.58-23.032 6.102-57.679-19.666-65.05-51.897s8.856-63.437 36.245-69.7 55.567 14.786 62.938 47.017z" fill="#f7915e"/><path d="M73.597 157.195c-7.627 0-16.129-2.662-24.635-7.801-16.859-10.185-29.886-27.68-33.998-45.656-3.61-15.783-1.777-31.823 5.162-45.165 6.962-13.387 18.225-22.46 31.717-25.546 27.792-6.355 56.485 15.02 63.949 47.652 7.357 32.17-9.526 68.902-34.74 75.583a29.072 29.072 0 01-7.455.933zM61.758 33.594a42.704 42.704 0 00-9.54 1.078c-13 2.973-23.867 11.737-30.596 24.68-6.754 12.987-8.534 28.617-5.014 44.01 4.013 17.546 16.744 34.631 33.226 44.588 11.01 6.653 21.945 9.027 30.786 6.68 24.404-6.464 40.698-42.22 33.527-73.575-6.398-27.975-28.755-47.461-52.389-47.461z" fill="#3e4147"/><ellipse cx="70.766" cy="47.164" rx="8.221" ry="12.346" transform="rotate(-74.647 70.767 47.164)" fill="#fff"/><path d="M78.056 138.734c-34.713 0-62.912-26.22-63.568-58.793a68.899 68.899 0 001.298 23.609c7.371 32.23 42.018 57.999 65.05 51.897 11.134-2.95 20.662-11.878 27.1-23.738a66.397 66.397 0 01-29.88 7.025z" fill="#e97e49"/><path d="M73.597 157.195c-7.627 0-16.129-2.662-24.635-7.801-16.859-10.185-29.886-27.68-33.998-45.656-3.61-15.783-1.777-31.823 5.162-45.165 6.962-13.387 18.225-22.46 31.717-25.546 27.792-6.355 56.485 15.02 63.949 47.652 7.357 32.17-9.526 68.902-34.74 75.583a29.072 29.072 0 01-7.455.933zM61.758 33.594a42.704 42.704 0 00-9.54 1.078c-13 2.973-23.867 11.737-30.596 24.68-6.754 12.987-8.534 28.617-5.014 44.01 4.013 17.546 16.744 34.631 33.226 44.588 11.01 6.653 21.945 9.027 30.786 6.68 24.404-6.464 40.698-42.22 33.527-73.575-6.398-27.975-28.755-47.461-52.389-47.461z" fill="#3e4147"/><path d="M143.998 25.494s-3.082-13.085 1.52-21.637a4.782 4.782 0 013.141-2.44 8.13 8.13 0 011.61-.195 1.91 1.91 0 011.869 2.414c-.617 2.267-1.562 5.764-1.888 7.088 0 0 6.533-7.89 12.04-9.692a4.024 4.024 0 012.04-.107c2.558.511 9.483 2.422 12.87 8.538a4.234 4.234 0 01-2.526 6.147l-10.754 3.034 2.447 1.032a1.613 1.613 0 01.365 2.756 24.066 24.066 0 01-7.295 3.676c-.701.237-1.435.362-2.132.61-3.054 1.092-11.12 3.445-13.307-1.224z" fill="#cedd3e"/><path d="M149.592 29.127c-2.683 0-5.19-.782-6.358-3.275a.816.816 0 01-.057-.165c-.129-.546-3.1-13.498 1.599-22.23a5.628 5.628 0 013.7-2.863 9.054 9.054 0 011.776-.215 2.647 2.647 0 012.21 1.057 2.734 2.734 0 01.489 2.421q-.593 2.183-1.013 3.75c2.45-2.535 6.437-6.181 10.09-7.377A4.894 4.894 0 01164.496.1c2.868.573 9.918 2.591 13.441 8.956a5.097 5.097 0 01.252 4.454 5.017 5.017 0 01-3.286 2.912l-8.44 2.38.232.1a2.428 2.428 0 011.476 1.921 2.452 2.452 0 01-.915 2.27 25.19 25.19 0 01-7.548 3.814c-.355.12-.717.214-1.08.307-.35.09-.7.179-1.04.3a25.51 25.51 0 01-7.996 1.614zm-4.793-3.912c1.99 3.999 9.848 1.558 12.221.71.39-.139.79-.242 1.189-.345.32-.083.642-.164.957-.27a23.295 23.295 0 007.042-3.538.77.77 0 00.292-.72.748.748 0 00-.46-.598l-2.449-1.034a.843.843 0 01.1-1.588l10.755-3.034a3.336 3.336 0 002.186-1.939 3.419 3.419 0 00-.17-2.988c-3.182-5.746-9.66-7.592-12.296-8.118a3.192 3.192 0 00-1.614.08c-5.21 1.705-11.589 9.353-11.652 9.43a.844.844 0 01-1.469-.74c.247-1.004.884-3.397 1.893-7.108a1.07 1.07 0 00-.19-.943 1.053 1.053 0 00-.85-.408 7.323 7.323 0 00-1.443.176 3.943 3.943 0 00-2.58 2.016c-4.204 7.811-1.712 19.822-1.462 20.959z" fill="#3e4147"/><path d="M152.25 25.396l5.804 107.518a2.55 2.55 0 01-3.053 2.638l-71.728-11.669a3.007 3.007 0 01-1.643-4.533l64.062-95.787a3.583 3.583 0 016.559 1.833z" fill="#fdbe2a"/><path d="M155.516 136.447a3.443 3.443 0 01-.681-.07l-71.699-11.661a.726.726 0 01-.108-.026 3.85 3.85 0 01-2.103-5.803l64.066-95.792a4.426 4.426 0 018.101 2.26l5.804 107.513a3.396 3.396 0 01-3.38 3.58zm-72.049-13.386l71.67 11.659a1.71 1.71 0 002.076-1.761l-5.804-107.517-.001-.008a2.74 2.74 0 00-5.015-1.402L82.331 119.82a2.164 2.164 0 001.136 3.242z" fill="#3e4147"/><path d="M181.456 96.077a76.73 76.73 0 01-9.729 8.762 2.272 2.272 0 00.548 3.976 17.37 17.37 0 0010.143.794 2.269 2.269 0 00.807-.386l6.97-5.175a2.266 2.266 0 00.063-3.59l-5.745-4.59a2.26 2.26 0 00-3.057.209z" fill="#cedd3e"/><path d="M178.783 110.884a19.691 19.691 0 01-6.802-1.279 3.114 3.114 0 01-.753-5.446 76.288 76.288 0 009.616-8.661 3.085 3.085 0 014.196-.29l5.745 4.59a3.11 3.11 0 01-.087 4.928l-6.97 5.173a3.12 3.12 0 01-1.11.53 16.19 16.19 0 01-3.835.455zm4.313-14.673a1.406 1.406 0 00-1.026.445h-.001a77.874 77.874 0 01-9.843 8.863 1.43 1.43 0 00.343 2.506 16.652 16.652 0 009.65.765 1.42 1.42 0 00.504-.245l6.969-5.173a1.425 1.425 0 00.04-2.256l-5.745-4.59a1.421 1.421 0 00-.89-.315zm-1.64-.134z" fill="#3e4147"/><path d="M80.391 5.922c5.053.057 13.237 1.253 19.268 7.538a2.283 2.283 0 01.48 2.41l-3.244 8.279a2.266 2.266 0 01-1.458 1.344L88.45 27.59a2.266 2.266 0 01-2.849-1.614c-.925-3.633-3.12-10.847-7.08-16.473a2.265 2.265 0 011.87-3.582z" fill="#d85927"/><path d="M87.793 28.531a3.116 3.116 0 01-3.008-2.346c-.94-3.697-3.096-10.716-6.952-16.196a3.116 3.116 0 01-.215-3.257A3.011 3.011 0 0180.4 5.08c5.71.064 13.794 1.469 19.866 7.797a3.135 3.135 0 01.657 3.3l-3.244 8.281a3.092 3.092 0 01-2 1.844l-6.987 2.097a3.137 3.137 0 01-.9.133zm-7.43-21.766a1.392 1.392 0 00-1.253.753 1.418 1.418 0 00.102 1.5c4.012 5.7 6.238 12.942 7.208 16.75a1.423 1.423 0 001.789 1.015l6.986-2.097a1.437 1.437 0 00.915-.844l3.244-8.28a1.443 1.443 0 00-.304-1.518c-5.667-5.906-13.28-7.219-18.669-7.28h-.017z" fill="#3e4147"/><path d="M98.41 35.046l6.396-5.048a2.266 2.266 0 013.423.75l2.247 4.409a2.266 2.266 0 01-.35 2.561l-4.614 5.03a2.266 2.266 0 01-3.34 0l-4.029-4.39a2.266 2.266 0 01.266-3.312z" fill="#0083d1"/><path d="M103.841 44.326a3.116 3.116 0 01-2.29-1.008l-4.029-4.39a3.11 3.11 0 01.364-4.544l6.397-5.048a3.11 3.11 0 014.697 1.03l2.247 4.408a3.124 3.124 0 01-.48 3.514l-4.615 5.03a3.118 3.118 0 01-2.29 1.008zm-4.91-8.618a1.425 1.425 0 00-.167 2.08l4.029 4.39a1.408 1.408 0 001.048.462h.001a1.404 1.404 0 001.047-.461l4.617-5.032a1.429 1.429 0 00.218-1.608l-2.246-4.408a1.423 1.423 0 00-2.15-.47z" fill="#3e4147"/><path d="M3.64 50.005l5.475 1.314a2.266 2.266 0 011.737 2.204v11.073a2.266 2.266 0 01-3.236 2.049L3.912 64.89a2.266 2.266 0 01-1.265-1.676L.875 52.581a2.266 2.266 0 012.764-2.576z" fill="#fdbe2a"/><path d="M8.588 67.708a3.105 3.105 0 01-1.333-.302L3.55 65.652a3.11 3.11 0 01-1.736-2.299L.043 52.72a3.11 3.11 0 013.793-3.535l5.475 1.313a3.102 3.102 0 012.384 3.024v11.075a3.114 3.114 0 01-3.107 3.111zM3.1 50.784a1.425 1.425 0 00-1.394 1.658l1.772 10.634a1.422 1.422 0 00.794 1.053l3.704 1.754a1.423 1.423 0 002.032-1.286V53.522a1.422 1.422 0 00-1.091-1.384l-5.475-1.313h-.001a1.414 1.414 0 00-.34-.04z" fill="#3e4147"/><path d="M62.639 180.587a84.329 84.329 0 0012.56-2.143 2.261 2.261 0 012.753 2.858l-1.785 5.768a2.266 2.266 0 01-1.68 1.544l-12.527 2.75a2.266 2.266 0 01-2.698-2.706l1.402-6.308a2.265 2.265 0 011.975-1.763z" fill="#0083d1"/><path d="M61.468 192.26a3.11 3.11 0 01-3.029-3.784l1.401-6.309a3.108 3.108 0 012.712-2.419 82.802 82.802 0 0012.418-2.115 3.037 3.037 0 013.037.815 3.121 3.121 0 01.75 3.105l-1.785 5.766a3.113 3.113 0 01-2.303 2.117l-12.528 2.75a3.093 3.093 0 01-.673.074zm14.343-13.058a1.397 1.397 0 00-.382.054 84.504 84.504 0 01-12.703 2.17 1.42 1.42 0 00-1.24 1.107l-1.4 6.308a1.423 1.423 0 001.694 1.699l12.527-2.75a1.425 1.425 0 001.054-.969l1.785-5.767a1.416 1.416 0 00-.346-1.428 1.375 1.375 0 00-.989-.424zm-13.172 1.385z" fill="#3e4147"/><path d="M109.417 169.157c-.863.253-1.915.536-2.873.785a2.264 2.264 0 00-1.458 3.197 2.266 2.266 0 002.031 1.262h3.352a2.266 2.266 0 002.026-3.283l-.405-.807a2.27 2.27 0 00-2.673-1.154z" fill="#d85927"/><path d="M110.47 175.243h-3.353a3.11 3.11 0 01-.785-6.118c.95-.246 1.993-.526 2.847-.777a3.116 3.116 0 013.665 1.585l.406.807a3.11 3.11 0 01-2.78 4.503zm-.407-5.336a1.48 1.48 0 00-.41.059c-.87.256-1.932.542-2.897.792a1.423 1.423 0 00.36 2.8h3.353a1.424 1.424 0 001.273-2.062l-.405-.808a1.421 1.421 0 00-1.274-.78zm-.646-.75z" fill="#3e4147"/><path d="M71.015 174.85l1.105 7.538a2.266 2.266 0 002.242 1.937h10.353a2.266 2.266 0 002.069-3.192l-4.726-10.55a2.266 2.266 0 00-2.993-1.142l-6.733 3.012a2.266 2.266 0 00-1.317 2.397z" fill="#cedd3e"/><path d="M84.715 185.168H74.362a3.125 3.125 0 01-3.076-2.658l-1.105-7.537a3.12 3.12 0 011.806-3.29l6.733-3.011a3.109 3.109 0 014.108 1.566l4.725 10.55a3.109 3.109 0 01-2.838 4.38zm-4.725-15.082a1.42 1.42 0 00-.58.125l-6.734 3.012a1.428 1.428 0 00-.827 1.506l1.105 7.537a1.431 1.431 0 001.408 1.216h10.353a1.423 1.423 0 001.3-2.004l-4.726-10.55a1.416 1.416 0 00-.791-.748 1.433 1.433 0 00-.508-.094z" fill="#3e4147"/><path d="M123.977 56.032L81.63 119.35a3.007 3.007 0 001.642 4.533l71.73 11.67a2.55 2.55 0 003.053-2.639l-4.912-90.987c-6.205 2.065-15.55 6.14-29.166 14.105z" fill="#cedd3e"/><path d="M155.516 136.447a3.45 3.45 0 01-.681-.07l-71.699-11.661a.726.726 0 01-.108-.026 3.85 3.85 0 01-2.103-5.803l42.351-63.324a.84.84 0 01.275-.258c11.621-6.8 21.489-11.57 29.326-14.178a.842.842 0 011.108.754l4.911 90.987a3.396 3.396 0 01-3.38 3.58zm-72.049-13.386l71.67 11.659a1.708 1.708 0 002.076-1.761l-4.852-89.874c-7.516 2.627-16.856 7.19-27.791 13.577L82.33 119.82a2.164 2.164 0 001.137 3.242z" fill="#3e4147"/><path d="M83.272 123.883l3.498.57a290.915 290.915 0 0168.69-39.618l-2.317-42.908c-6.205 2.065-15.55 6.14-29.166 14.105L81.63 119.35a3.007 3.007 0 001.642 4.533z" fill="#0083d1"/><path d="M86.77 125.295a.784.784 0 01-.135-.01l-3.498-.57a.71.71 0 01-.109-.025 3.85 3.85 0 01-2.103-5.803l42.351-63.324a.84.84 0 01.275-.258c11.621-6.8 21.489-11.57 29.326-14.178a.842.842 0 011.108.754l2.316 42.908a.845.845 0 01-.526.828 290.64 290.64 0 00-68.484 39.498.843.843 0 01-.52.18zm-3.303-2.234l3.074.5a292.586 292.586 0 0168.045-39.282l-2.225-41.194c-7.516 2.627-16.856 7.19-27.791 13.577L82.33 119.82a2.164 2.164 0 001.137 3.242z" fill="#3e4147"/><path d="M154.33 63.927l-1.187-22c-6.205 2.065-15.55 6.14-29.166 14.105l-23.595 35.28c23.758-14.54 41.85-22.788 53.949-27.385z" fill="#d85927"/><path d="M100.382 92.154a.843.843 0 01-.7-1.311l23.594-35.28a.84.84 0 01.275-.258c11.621-6.8 21.489-11.57 29.326-14.178a.842.842 0 011.108.754l1.187 22a.843.843 0 01-.542.835c-11.039 4.193-29.335 12.336-53.807 27.314a.839.839 0 01-.44.124zm24.188-35.492l-21.371 31.955c22.545-13.547 39.603-21.172 50.257-25.258l-1.095-20.274c-7.516 2.627-16.856 7.19-27.791 13.577z" fill="#3e4147"/><ellipse cx="119.481" cy="128.819" rx="12.648" ry="39.208" transform="rotate(-78.857 119.481 128.82)" fill="#e9b92a"/><path d="M137.391 144.207a108.069 108.069 0 01-20.516-2.151c-19.317-3.805-38.322-12.69-36.69-20.977 1.632-8.284 22.59-9.3 41.904-5.496 10.359 2.04 19.852 5.266 26.731 9.082 7.151 3.967 10.686 8.191 9.957 11.895-.73 3.703-5.603 6.27-13.724 7.229a65.617 65.617 0 01-7.662.418zm-35.795-29.104c-11.553 0-19.023 2.579-19.757 6.302-1.101 5.594 12.845 14.562 35.362 18.996 10.19 2.006 20.013 2.617 27.655 1.713 7.228-.853 11.698-2.997 12.267-5.88.568-2.884-2.756-6.563-9.12-10.094-6.73-3.734-16.05-6.895-26.24-8.903a105.772 105.772 0 00-20.167-2.134z" fill="#3e4147"/><path d="M114.376 116.013a.844.844 0 01-.417-1.577c30.953-17.573 41.369-20.581 41.797-20.702a.843.843 0 01.455 1.624c-.104.03-10.726 3.12-41.42 20.544a.842.842 0 01-.415.11zM131.254 119.48a.844.844 0 01-.46-1.551 99.671 99.671 0 0125.502-11.992.844.844 0 01.431 1.631 97.896 97.896 0 00-25.015 11.775.833.833 0 01-.458.136zM115.266 70.144a.843.843 0 01-.499-1.522c16.205-11.874 38.06-20.33 38.28-20.414a.843.843 0 01.604 1.574c-.217.083-21.867 8.462-37.888 20.2a.834.834 0 01-.497.162z" fill="#3e4147"/><path d="M79.281 165.13a18.942 18.942 0 0015.956-4.561 4.04 4.04 0 00.143-5.713l-7.113-7.587a4.335 4.335 0 00-4.034-1.3 13.21 13.21 0 00-7.494 4.625 4.26 4.26 0 00-.962 2.738v7.767a4.083 4.083 0 003.504 4.031z" fill="#e97e49"/><path d="M82.537 166.214a23.125 23.125 0 01-3.38-.25 4.901 4.901 0 01-4.223-4.865v-7.767a5.1 5.1 0 011.158-3.28 14.064 14.064 0 017.97-4.908 5.207 5.207 0 014.82 1.548l7.114 7.586a4.991 4.991 0 011.337 3.57 4.74 4.74 0 01-1.523 3.34 19.177 19.177 0 01-13.273 5.026zm-3.132-1.918a17.975 17.975 0 0015.26-4.347 3.07 3.07 0 00.983-2.162 3.298 3.298 0 00-.883-2.355l-7.113-7.586a3.498 3.498 0 00-3.248-1.05 12.382 12.382 0 00-7.019 4.339 3.42 3.42 0 00-.765 2.197v7.767a3.227 3.227 0 002.785 3.197z" fill="#3e4147"/><path d="M86.632 158.34a24.79 24.79 0 011.499-.367c.23-.042.464-.094.668-.122a1.76 1.76 0 01.535-.035 4.082 4.082 0 011.766.308.434.434 0 01.235.231 1.063 1.063 0 01-.017.446 4.567 4.567 0 01-.35.886 6.697 6.697 0 00-.424.907c-.045.154-.012.193-.012.193s.036.04.195-.004a2.445 2.445 0 00.91-.581 3.53 3.53 0 00.755-.983 2.147 2.147 0 00.232-.996 1.888 1.888 0 00-.187-.673 1.802 1.802 0 00-.47-.555 4.608 4.608 0 00-2.565-.792 3.17 3.17 0 00-.819.018c-.261.026-.504.073-.768.115-.516.099-1.06.216-1.632.378a13.328 13.328 0 00-4.988 2.401 5.067 5.067 0 00-1.747 2.379 1.84 1.84 0 00-.13.717 1.69 1.69 0 00.026.377c.034.158.087.166.087.166.019.022.167-.023.767-.876.622-.797 2.155-2.346 6.434-3.539z" fill="#3e4147"/><path d="M124.53 196.805c-9.196 0-18.49-5.575-27.25-16.446A106.927 106.927 0 0183.96 158.4a.843.843 0 111.55-.662c.193.45 19.569 44.967 45.873 36.253a24.066 24.066 0 0010.246-6.909c9.694-10.837 43.442-45.189 70.684-32.213a.843.843 0 01-.724 1.524c-26.187-12.475-59.207 21.196-68.703 31.814a25.772 25.772 0 01-10.971 7.385 23.36 23.36 0 01-7.384 1.214z" fill="#3e4147"/></g></g></svg>
